<svg id="rainbird_homestay_logo" data-name="rainbird homestay logo" xmlns="http://www.w3.org/2000/svg" xmlns:xlink="http://www.w3.org/1999/xlink" width="221" height="97.73" viewBox="0 0 221 97.73">
  <defs>
    <linearGradient id="linear-gradient" x1="0.233" y1="0.925" x2="0.768" y2="0.074" gradientUnits="objectBoundingBox">
      <stop offset="0" stop-color="#0095d9"/>
      <stop offset="1" stop-color="#096691"/>
    </linearGradient>
    <linearGradient id="linear-gradient-2" x1="0.151" y1="0.118" x2="0.849" y2="0.882" gradientUnits="objectBoundingBox">
      <stop offset="0" stop-color="#90caee"/>
      <stop offset="1" stop-color="#0095d9"/>
    </linearGradient>
    <linearGradient id="linear-gradient-3" x1="0.511" y1="0.139" x2="0.49" y2="0.861" gradientUnits="objectBoundingBox">
      <stop offset="0" stop-color="#98cef0"/>
      <stop offset="1" stop-color="#096691"/>
    </linearGradient>
    <linearGradient id="linear-gradient-4" x1="0.064" y1="0.311" x2="0.936" y2="0.688" xlink:href="#linear-gradient"/>
    <linearGradient id="linear-gradient-5" x1="0.5" y1="0.02" x2="0.5" y2="0.98" gradientUnits="objectBoundingBox">
      <stop offset="0" stop-color="#45536e"/>
      <stop offset="1" stop-color="#2e394b"/>
    </linearGradient>
  </defs>
  <g id="_2069996955184">
    <path id="Path_582" data-name="Path 582" d="M1342.761,2237.107c3.1.5,7.529,5.374,13.936,2.48-3.986,5.817-7.618,8.592-13.2,6.5C1338.066,2244.016,1338.037,2236.309,1342.761,2237.107Z" transform="translate(-1299.771 -2170.999)" fill-rule="evenodd" fill="url(#linear-gradient)"/>
    <path id="Path_583" data-name="Path 583" d="M1172.772,2741.185a3.527,3.527,0,0,1,1.476.649c-.3-1.063-1.151-1.093-1.949-.856l.148-1.949-.472-.03-.177,2.126a1.175,1.175,0,0,0-.8.325c.915-.236,1.535,1.27,1.506,1.653.266-.886.089-1.447-.354-1.713a1.288,1.288,0,0,1,.974,1.211A1,1,0,0,0,1172.772,2741.185Z" transform="translate(-1136.425 -2658.129)" fill="#ffcd05" fill-rule="evenodd"/>
    <path id="Path_584" data-name="Path 584" d="M1438.236,1910.535,1440.6,1909l-.531,4.34-2.067-1Z" transform="translate(-1395.542 -1852.635)" fill="#ffcd05" fill-rule="evenodd"/>
    <path id="Path_585" data-name="Path 585" d="M1508,2007.476l2.6-.443-2.48-1.033Z" transform="translate(-1463.475 -1946.771)" fill="#ffcd05" fill-rule="evenodd"/>
    <path id="Path_586" data-name="Path 586" d="M1103.86,2751.333a3.585,3.585,0,0,1,1.565.649c-.3-1.122-1.21-1.151-2.067-.886l.177-2.067-.5-.03-.177,2.273a1.277,1.277,0,0,0-.856.325c.974-.236,1.624,1.329,1.594,1.771.266-.974.118-1.565-.354-1.831a1.359,1.359,0,0,1,1,1.27A1.015,1.015,0,0,0,1103.86,2751.333Z" transform="translate(-1069.463 -2667.834)" fill="#ffcd05" fill-rule="evenodd"/>
    <path id="Path_587" data-name="Path 587" d="M101.684,1887.551c-1.831-3.336-6.5-5.64-10.688-3.809-4.222,1.83-5.049,5.315-6.141,11.013-.945,4.99-2.982,7.293-4.931,9.684-2.51.856-21.022,4.813-20.934,4.842a33.263,33.263,0,0,0,10.688-.03l-7.795,3.484c7.411-.738,12.283-3.1,18.631-6.171a18.316,18.316,0,0,0,5.61,2.421c4.842,1.21,10.895.325,15.029-6.141A15.3,15.3,0,0,0,101.684,1887.551Z" transform="translate(-57.248 -1827.496)" fill-rule="evenodd" fill="url(#linear-gradient-2)"/>
    <path id="Path_588" data-name="Path 588" d="M926.145,2345.938c4.016-2.746,8.356-3.956,11.81-3.632a15.085,15.085,0,0,1-2.185,6.141c-4.134,6.466-10.186,7.352-15.029,6.141-.62-.177-1.211-.354-1.742-.531A20.111,20.111,0,0,1,926.145,2345.938Z" transform="translate(-891.866 -2273.098)" fill-rule="evenodd" fill="url(#linear-gradient-3)"/>
    <path id="Path_589" data-name="Path 589" d="M754.667,2205.725c-2.8,2.066-4.813,9.094-12.667,9.418,6.879,3.809,11.9,4.783,16.416-.088C762.816,2210.271,759.007,2202.565,754.667,2205.725Z" transform="translate(-720.092 -2139.882)" fill-rule="evenodd" fill="url(#linear-gradient-4)"/>
    <path id="Path_590" data-name="Path 590" d="M1285.918,1983.826a1.028,1.028,0,0,1,.974,1.092,1.049,1.049,0,0,1-1.122.945,1.021,1.021,0,1,1,.147-2.037Z" transform="translate(-1246.885 -1925.247)" fill="#232f3a" fill-rule="evenodd"/>
    <path id="Path_591" data-name="Path 591" d="M1319.827,1997.384a.418.418,0,0,1-.827,0,.415.415,0,0,1,.827,0Z" transform="translate(-1280.056 -1938.037)" fill="#f4f4f4" fill-rule="evenodd"/>
    <path id="Path_592" data-name="Path 592" d="M2032.187,481a5.885,5.885,0,0,0-2.008,1.742c-.915,1.919,1.476,2.421,1.772.59A16.041,16.041,0,0,1,2032.187,481Z" transform="translate(-1970.035 -466.798)" fill="#b3cddb" fill-rule="evenodd"/>
    <path id="Path_593" data-name="Path 593" d="M2430.219,188a3.329,3.329,0,0,0-1.181,1c-.531,1.122.856,1.417,1.033.354A7.3,7.3,0,0,1,2430.219,188Z" transform="translate(-2357.202 -182.449)" fill="#b3cddb" fill-rule="evenodd"/>
    <path id="Path_594" data-name="Path 594" d="M2202.183,278a5.443,5.443,0,0,0-2.008,1.712c-.915,1.949,1.476,2.451,1.742.62A16.088,16.088,0,0,1,2202.183,278Z" transform="translate(-2135.012 -269.792)" fill="#b3cddb" fill-rule="evenodd"/>
    <path id="Path_595" data-name="Path 595" d="M2471.059,365s-2.215,1.181-2.805,2.451c-1.3,2.716,2.067,3.425,2.48.856A21.271,21.271,0,0,1,2471.059,365Z" transform="translate(-2395.089 -354.223)" fill="#b3cddb" fill-rule="evenodd"/>
    <path id="Path_596" data-name="Path 596" d="M2084.219,111a3.6,3.6,0,0,0-1.181,1c-.532,1.122.856,1.417,1.033.354A7.34,7.34,0,0,1,2084.219,111Z" transform="translate(-2021.418 -107.723)" fill="#b3cddb" fill-rule="evenodd"/>
    <path id="Path_597" data-name="Path 597" d="M2739.744,558a6.169,6.169,0,0,0-2.214,1.89c-1,2.126,1.624,2.657,1.949.679A12.878,12.878,0,0,1,2739.744,558Z" transform="translate(-2656.482 -541.525)" fill="#b3cddb" fill-rule="evenodd"/>
    <path id="Path_598" data-name="Path 598" d="M2746.186,382a3.013,3.013,0,0,0-1.152,1c-.531,1.122.857,1.417,1,.354A11.161,11.161,0,0,1,2746.186,382Z" transform="translate(-2663.868 -370.721)" fill="#b3cddb" fill-rule="evenodd"/>
    <path id="Path_599" data-name="Path 599" d="M1754.28,81a3.251,3.251,0,0,0-1.181,1c-.531,1.122.886,1.417,1.034.354A7.36,7.36,0,0,1,1754.28,81Z" transform="translate(-1701.223 -78.608)" fill="#b3cddb" fill-rule="evenodd"/>
    <path id="Path_600" data-name="Path 600" d="M2637.186,792a3.011,3.011,0,0,0-1.152,1c-.531,1.122.856,1.417,1,.354A10.605,10.605,0,0,1,2637.186,792Z" transform="translate(-2558.086 -768.616)" fill="#b3cddb" fill-rule="evenodd"/>
    <path id="Path_601" data-name="Path 601" d="M992.6,241s-2.451,1.329-3.13,2.687c-1.417,3.012,2.3,3.779,2.746.945C992.457,243.126,992.162,242.565,992.6,241Z" transform="translate(-959.949 -233.884)" fill="#b3cddb" fill-rule="evenodd"/>
    <path id="Path_602" data-name="Path 602" d="M1435.828,124a4.7,4.7,0,0,0-1.742,1.535c-.8,1.683,1.3,2.126,1.536.531A16.906,16.906,0,0,1,1435.828,124Z" transform="translate(-1391.569 -120.339)" fill="#b3cddb" fill-rule="evenodd"/>
    <path id="Path_603" data-name="Path 603" d="M1221.828,0a4.818,4.818,0,0,0-1.742,1.506c-.8,1.683,1.3,2.126,1.535.531A16.466,16.466,0,0,1,1221.828,0Z" transform="translate(-1183.888)" fill="#b3cddb" fill-rule="evenodd"/>
    <path id="Path_604" data-name="Path 604" d="M764.154,357a5.613,5.613,0,0,0-1.978,1.742c-.915,1.919,1.476,2.421,1.742.59A16.024,16.024,0,0,1,764.154,357Z" transform="translate(-739.47 -346.459)" fill="#b3cddb" fill-rule="evenodd"/>
    <path id="Path_605" data-name="Path 605" d="M962.408,64a4.262,4.262,0,0,0-1.476,1.27c-.679,1.417,1.092,1.772,1.3.443A11.629,11.629,0,0,1,962.408,64Z" transform="translate(-932.41 -62.11)" fill="#b3cddb" fill-rule="evenodd"/>
    <path id="Path_606" data-name="Path 606" d="M1245.219,312a3.329,3.329,0,0,0-1.181,1c-.531,1.122.856,1.417,1.033.354A7.36,7.36,0,0,1,1245.219,312Z" transform="translate(-1207.19 -302.788)" fill="#b3cddb" fill-rule="evenodd"/>
    <path id="Path_607" data-name="Path 607" d="M1141.28,525a3.249,3.249,0,0,0-1.181,1c-.531,1.122.886,1.417,1.033.354A7.329,7.329,0,0,1,1141.28,525Z" transform="translate(-1106.322 -509.499)" fill="#b3cddb" fill-rule="evenodd"/>
    <path id="Path_608" data-name="Path 608" d="M1830.571,299s-2.451,1.3-3.1,2.657c-1.417,3.012,2.3,3.779,2.717.974C1830.424,301.1,1830.128,300.535,1830.571,299Z" transform="translate(-1773.203 -290.172)" fill="#b3cddb" fill-rule="evenodd"/>
    <path id="Path_609" data-name="Path 609" d="M1608.862,353a4.942,4.942,0,0,0-1.772,1.535c-.8,1.683,1.3,2.126,1.565.531A12.577,12.577,0,0,1,1608.862,353Z" transform="translate(-1559.465 -342.577)" fill="#b3cddb" fill-rule="evenodd"/>
    <path id="Path_610" data-name="Path 610" d="M1342.572,407s-2.451,1.3-3.1,2.687c-1.417,3.012,2.3,3.779,2.716.945C1342.424,409.126,1342.129,408.565,1342.572,407Z" transform="translate(-1299.612 -394.983)" fill="#b3cddb" fill-rule="evenodd"/>
    <path id="Path_611" data-name="Path 611" d="M2495.855,626a3.316,3.316,0,0,0-1.152,1c-.561,1.151.856,1.417,1,.354A7.34,7.34,0,0,1,2495.855,626Z" transform="translate(-2420.919 -607.517)" fill="#b3cddb" fill-rule="evenodd"/>
    <path id="Path_612" data-name="Path 612" d="M2262.975,610a4.216,4.216,0,0,0-1.565,1.358c-.738,1.506,1.152,1.89,1.388.472A12.8,12.8,0,0,1,2262.975,610Z" transform="translate(-2194.476 -591.989)" fill="#b3cddb" fill-rule="evenodd"/>
    <path id="Path_613" data-name="Path 613" d="M665.744,667a6.039,6.039,0,0,0-2.214,1.919c-1,2.126,1.624,2.687,1.949.679A15.516,15.516,0,0,1,665.744,667Z" transform="translate(-643.718 -647.306)" fill="#b3cddb" fill-rule="evenodd"/>
    <g id="Group_347" data-name="Group 347" transform="translate(47.271 18.616)">
      <path id="Path_614" data-name="Path 614" d="M1601,632.286l1.24-1.476a.835.835,0,0,1,1.3,0l.945,1.151Z" transform="translate(-1601 -630.5)" fill="#15181f"/>
    </g>
    <rect id="Rectangle_643" data-name="Rectangle 643" width="1.447" height="49.42" rx="0.724" transform="translate(48.363 35.549)" fill="#15181f"/>
    <path id="Path_615" data-name="Path 615" d="M11.249,681.185c5.7,0,10.6,2.953,12.637,7.145,2.037-4.193,6.909-7.145,12.637-7.145,5.7,0,10.6,2.953,12.637,7.145,2.037-4.193,6.939-7.145,12.637-7.145,5.728,0,10.6,2.953,12.637,7.145,2.067-4.193,6.939-7.145,12.667-7.145A14.72,14.72,0,0,1,97.76,685.5C89.7,668.165,70.921,656,49.013,656,26.839,656,7.883,668.46,0,686.146A14.506,14.506,0,0,1,11.249,681.185Z" transform="translate(0 -636.631)" fill="url(#linear-gradient-5)"/>
    <path id="Path_616" data-name="Path 616" d="M2109,2897.507V2888h1.712v3.838h3.838V2888h1.683v9.507h-1.683v-4.192h-3.838v4.192Z" transform="translate(-2046.73 -2802.73)" fill="#22739b"/>
    <path id="_1" data-name="1" d="M2448.366,2970.47a3.723,3.723,0,0,1-1.269-.236,3.4,3.4,0,0,1-1.093-.738,3.653,3.653,0,0,1-.738-1.181,4.235,4.235,0,0,1-.266-1.565,4.513,4.513,0,0,1,.266-1.594,3.661,3.661,0,0,1,.738-1.181,3.407,3.407,0,0,1,1.093-.738,3.717,3.717,0,0,1,1.269-.236,3.888,3.888,0,0,1,1.3.236,3,3,0,0,1,1.063.738,3.718,3.718,0,0,1,.768,1.181,4.524,4.524,0,0,1,.266,1.594,4.245,4.245,0,0,1-.266,1.565,3.71,3.71,0,0,1-.768,1.181,2.99,2.99,0,0,1-1.063.738A3.894,3.894,0,0,1,2448.366,2970.47Zm0-1.358a1.4,1.4,0,0,0,1.24-.649,3.591,3.591,0,0,0,0-3.454,1.4,1.4,0,0,0-1.24-.65,1.38,1.38,0,0,0-1.21.65,3.589,3.589,0,0,0,0,3.454A1.38,1.38,0,0,0,2448.366,2969.112Z" transform="translate(-2372.809 -2875.515)" fill="#22739b"/>
    <path id="_2" data-name="2" d="M2760,2970.293v-7.116h1.388l.118.974h.059a5.183,5.183,0,0,1,.974-.827,2.038,2.038,0,0,1,1.181-.324,2.084,2.084,0,0,1,1.27.324,1.923,1.923,0,0,1,.709.945,7.329,7.329,0,0,1,1.063-.915A2.323,2.323,0,0,1,2768,2963a1.908,1.908,0,0,1,1.683.738,3.484,3.484,0,0,1,.531,2.1v4.458h-1.683v-4.252a2.146,2.146,0,0,0-.266-1.24,1.012,1.012,0,0,0-.827-.384,2.286,2.286,0,0,0-1.505.886v4.99h-1.654v-4.252a1.911,1.911,0,0,0-.3-1.24.972.972,0,0,0-.827-.384,2.286,2.286,0,0,0-1.506.886v4.99Z" transform="translate(-2678.509 -2875.515)" fill="#22739b"/>
    <path id="_3" data-name="3" d="M3191.543,2970.47a4.144,4.144,0,0,1-1.388-.236,3.2,3.2,0,0,1-1.86-1.919,3.7,3.7,0,0,1-.3-1.565,4.218,4.218,0,0,1,.3-1.565,2.985,2.985,0,0,1,.738-1.181,2.781,2.781,0,0,1,1.034-.738,3.123,3.123,0,0,1,1.24-.266,2.871,2.871,0,0,1,1.27.236,2.4,2.4,0,0,1,.916.708,2.634,2.634,0,0,1,.561,1.063,5.025,5.025,0,0,1,.207,1.358c0,.177-.029.325-.029.473-.03.147-.03.265-.059.354h-4.517a2.29,2.29,0,0,0,.649,1.476,2.015,2.015,0,0,0,1.447.5,2.73,2.73,0,0,0,.856-.118,4.908,4.908,0,0,0,.8-.384l.561,1.033a4.432,4.432,0,0,1-1.122.561A3.861,3.861,0,0,1,3191.543,2970.47Zm-1.92-4.4h3.16a2.219,2.219,0,0,0-.354-1.328,1.317,1.317,0,0,0-1.093-.473,1.669,1.669,0,0,0-1.122.473A2.147,2.147,0,0,0,3189.624,2966.07Z" transform="translate(-3093.872 -2875.515)" fill="#22739b"/>
    <path id="_4" data-name="4" d="M3461.716,2970.47a4.21,4.21,0,0,1-1.476-.266,6.18,6.18,0,0,1-1.24-.709l.8-1.092a3.6,3.6,0,0,0,.945.591,2.267,2.267,0,0,0,1,.206,1.272,1.272,0,0,0,.886-.236.763.763,0,0,0,.266-.62.62.62,0,0,0-.148-.384,1.615,1.615,0,0,0-.325-.3c-.147-.088-.325-.148-.5-.236a4.553,4.553,0,0,1-.561-.236,7.392,7.392,0,0,1-.709-.3,4.852,4.852,0,0,1-.649-.414,2.32,2.32,0,0,1-.473-.59,1.556,1.556,0,0,1-.177-.768,1.9,1.9,0,0,1,.709-1.535,2.738,2.738,0,0,1,1.89-.59,3.377,3.377,0,0,1,1.358.266,3.922,3.922,0,0,1,1.033.591l-.768,1a7.154,7.154,0,0,0-.768-.443,1.978,1.978,0,0,0-.827-.177,1.083,1.083,0,0,0-.768.236.728.728,0,0,0-.265.561.594.594,0,0,0,.118.384,3.113,3.113,0,0,0,.325.266c.148.059.3.147.472.207s.384.147.561.207a7.786,7.786,0,0,1,.738.3,4.856,4.856,0,0,1,.65.413,1.927,1.927,0,0,1,.472.62,1.8,1.8,0,0,1,.207.827,2.168,2.168,0,0,1-.207.886,1.707,1.707,0,0,1-.531.679,2.159,2.159,0,0,1-.856.472A3.676,3.676,0,0,1,3461.716,2970.47Z" transform="translate(-3356.871 -2875.515)" fill="#22739b"/>
    <path id="_5" data-name="5" d="M3692.277,2912.241a2.857,2.857,0,0,1-1.063-.177,1.525,1.525,0,0,1-.679-.531,1.989,1.989,0,0,1-.413-.827,3.682,3.682,0,0,1-.118-1.033v-3.425h-1v-1.24l1.092-.059.207-1.948h1.387v1.948h1.831v1.3h-1.831v3.425c0,.827.325,1.24,1,1.24a1.728,1.728,0,0,0,.384-.059,3.2,3.2,0,0,0,.354-.088l.3,1.21a3.326,3.326,0,0,1-.649.207A7.238,7.238,0,0,1,3692.277,2912.241Z" transform="translate(-3580.08 -2817.287)" fill="#22739b"/>
    <path id="_6" data-name="6" d="M3901.1,2970.47a2.1,2.1,0,0,1-1.535-.561,2.05,2.05,0,0,1-.561-1.535,1.944,1.944,0,0,1,.236-1,2.033,2.033,0,0,1,.739-.768,5.644,5.644,0,0,1,1.328-.532,9.6,9.6,0,0,1,1.89-.325,1.441,1.441,0,0,0-.088-.531,1.364,1.364,0,0,0-.207-.472,1.478,1.478,0,0,0-.414-.3,1.6,1.6,0,0,0-.59-.118,3.069,3.069,0,0,0-1.033.207,7.519,7.519,0,0,0-.975.5l-.62-1.122a6.924,6.924,0,0,1,1.329-.65,4.752,4.752,0,0,1,1.594-.266,2.517,2.517,0,0,1,2.008.768,3.51,3.51,0,0,1,.649,2.3v4.222h-1.358l-.118-.768h-.059a5.673,5.673,0,0,1-1.033.679A2.664,2.664,0,0,1,3901.1,2970.47Zm.531-1.3a1.462,1.462,0,0,0,.8-.207,4.121,4.121,0,0,0,.768-.59v-1.594a9.37,9.37,0,0,0-1.24.236,3.41,3.41,0,0,0-.8.325,1.373,1.373,0,0,0-.414.413,1,1,0,0,0-.148.5.8.8,0,0,0,.3.708A1.443,1.443,0,0,0,3901.628,2969.171Z" transform="translate(-3783.879 -2875.515)" fill="#22739b"/>
    <path id="_7" data-name="7" d="M4166.358,2979.068c-.207,0-.354-.03-.5-.03-.147-.029-.295-.088-.443-.118l.325-1.3a.916.916,0,0,1,.236.059.81.81,0,0,0,.266.03,1.22,1.22,0,0,0,.915-.354,2.192,2.192,0,0,0,.5-.856l.148-.472L4165,2969h1.683l1.241,3.484c.118.325.207.65.324.974.088.354.207.709.3,1.033h.059c.088-.325.177-.649.266-1s.207-.679.266-1l1.092-3.484h1.624l-2.6,7.44a7.607,7.607,0,0,1-.472,1.093,3.552,3.552,0,0,1-.62.827,2.007,2.007,0,0,1-.767.532A2.815,2.815,0,0,1,4166.358,2979.068Z" transform="translate(-4042.025 -2881.338)" fill="#22739b"/>
    <path id="_8" data-name="8" d="M4551,3067.21V3066h3.454v1.21Z" transform="translate(-4416.628 -2975.474)" fill="#22739b"/>
    <path id="_9" data-name="9" d="M4838.425,2891.862a4.918,4.918,0,0,1-1.83-.354,4.781,4.781,0,0,1-1.595-1.033l1-1.152a3.422,3.422,0,0,0,1.151.768,3.067,3.067,0,0,0,1.3.3,1.833,1.833,0,0,0,1.24-.325.993.993,0,0,0,.414-.886,1.387,1.387,0,0,0-.088-.5,1.765,1.765,0,0,0-.325-.354,2.91,2.91,0,0,0-.443-.266c-.177-.088-.383-.177-.59-.265l-1.329-.561c-.207-.118-.443-.236-.679-.384a2.573,2.573,0,0,1-.62-.5,2.864,2.864,0,0,1-.443-.708,2.437,2.437,0,0,1-.177-.945,2.184,2.184,0,0,1,.266-1.063,2.542,2.542,0,0,1,.649-.856,3.68,3.68,0,0,1,1-.561,4.439,4.439,0,0,1,1.3-.207,4.267,4.267,0,0,1,1.594.325,5.215,5.215,0,0,1,1.329.885l-.856,1.093a3.433,3.433,0,0,0-.974-.591,2.58,2.58,0,0,0-1.092-.236,1.717,1.717,0,0,0-1.093.3.993.993,0,0,0-.413.827.806.806,0,0,0,.118.472,2,2,0,0,0,.355.354,3.333,3.333,0,0,0,.472.266,4.511,4.511,0,0,0,.562.236l1.3.561a3.123,3.123,0,0,1,.767.384,3.771,3.771,0,0,1,.621.561,2.146,2.146,0,0,1,.383.679,3.025,3.025,0,0,1,.148.945,2.786,2.786,0,0,1-.236,1.092,2.734,2.734,0,0,1-.679.886,3.161,3.161,0,0,1-1.063.62A4.4,4.4,0,0,1,4838.425,2891.862Z" transform="translate(-4692.244 -2796.907)" fill="#22739b"/>
    <path id="_10" data-name="10" d="M5139.126,2970.47a1.982,1.982,0,0,1-2.126-2.1,2.279,2.279,0,0,1,.236-1,2.125,2.125,0,0,1,.768-.768,5.394,5.394,0,0,1,1.3-.532,10.35,10.35,0,0,1,1.919-.325q-.045-.31-.089-.531a1.419,1.419,0,0,0-.236-.472,1.33,1.33,0,0,0-.383-.3,1.935,1.935,0,0,0-.621-.118,3.222,3.222,0,0,0-1.033.207c-.325.148-.65.325-.974.5l-.591-1.122a6.924,6.924,0,0,1,1.329-.65,4.754,4.754,0,0,1,1.594-.266,2.558,2.558,0,0,1,2.008.768,3.51,3.51,0,0,1,.649,2.3v4.222h-1.387l-.118-.768h-.059a4.637,4.637,0,0,1-1,.679A2.761,2.761,0,0,1,5139.126,2970.47Zm.532-1.3a1.458,1.458,0,0,0,.8-.207,5.344,5.344,0,0,0,.769-.59v-1.594a8.518,8.518,0,0,0-1.241.236,3.441,3.441,0,0,0-.8.325,1.21,1.21,0,0,0-.442.413.968.968,0,0,0-.118.5.8.8,0,0,0,.295.708A1.364,1.364,0,0,0,5139.658,2969.171Z" transform="translate(-4985.326 -2875.515)" fill="#22739b"/>
    <path id="_11" data-name="11" d="M5433,2873.246V2863h1.654v6.407h.029l2.658-3.277h1.83l-2.451,2.894,2.687,4.222h-1.8l-1.831-3.1-1.122,1.3v1.8Z" transform="translate(-5272.586 -2778.468)" fill="#22739b"/>
    <path id="_12" data-name="12" d="M5721.624,2873.423a1.4,1.4,0,0,1-1.27-.531,2.666,2.666,0,0,1-.354-1.476V2863h1.654v8.5a.791.791,0,0,0,.118.443.361.361,0,0,0,.266.118h.089a.318.318,0,0,0,.147-.03l.237,1.24A1.993,1.993,0,0,1,5721.624,2873.423Z" transform="translate(-5551.112 -2778.468)" fill="#22739b"/>
    <path id="_13" data-name="13" d="M5870.513,2970.47a4.138,4.138,0,0,1-1.387-.236,3.2,3.2,0,0,1-1.86-1.919,4.734,4.734,0,0,1,0-3.13A2.987,2.987,0,0,1,5868,2964a2.778,2.778,0,0,1,1.035-.738,3.117,3.117,0,0,1,1.239-.266,2.877,2.877,0,0,1,1.271.236,2.188,2.188,0,0,1,.914.708,2.632,2.632,0,0,1,.562,1.063,4.094,4.094,0,0,1,.207,1.358,2.367,2.367,0,0,1-.03.473,1.111,1.111,0,0,1-.059.354h-4.518a2.173,2.173,0,0,0,.679,1.476,1.9,1.9,0,0,0,1.417.5,2.618,2.618,0,0,0,.857-.118,4.921,4.921,0,0,0,.8-.384l.562,1.033a4.428,4.428,0,0,1-1.122.561A3.864,3.864,0,0,1,5870.513,2970.47Zm-1.919-4.4h3.188a2.031,2.031,0,0,0-.383-1.328,1.318,1.318,0,0,0-1.093-.473,1.67,1.67,0,0,0-1.122.473A2.317,2.317,0,0,0,5868.594,2966.07Z" transform="translate(-5693.772 -2875.515)" fill="#22739b"/>
    <path id="_14" data-name="14" d="M6139.716,2970.47a4.211,4.211,0,0,1-1.476-.266,6.192,6.192,0,0,1-1.241-.709l.8-1.092a4.137,4.137,0,0,0,.944.591,2.4,2.4,0,0,0,1.034.206,1.234,1.234,0,0,0,.855-.236.763.763,0,0,0,.266-.62.591.591,0,0,0-.118-.384,1.9,1.9,0,0,0-.354-.3c-.147-.088-.325-.148-.5-.236-.177-.059-.354-.147-.561-.236a7.388,7.388,0,0,1-.708-.3,4.842,4.842,0,0,1-.65-.414,2.224,2.224,0,0,1-.443-.59,1.3,1.3,0,0,1-.207-.768,1.9,1.9,0,0,1,.709-1.535,2.768,2.768,0,0,1,1.919-.59,3.337,3.337,0,0,1,1.329.266,3.907,3.907,0,0,1,1.033.591l-.767,1a5.128,5.128,0,0,0-.769-.443,1.945,1.945,0,0,0-.8-.177,1.113,1.113,0,0,0-.8.236.725.725,0,0,0-.266.561.6.6,0,0,0,.118.384,3.152,3.152,0,0,0,.324.266c.148.059.3.147.473.207s.384.147.561.207a7.868,7.868,0,0,1,.738.3,3.51,3.51,0,0,1,.649.413,2.573,2.573,0,0,1,.5.62,1.8,1.8,0,0,1,.177.827,2.155,2.155,0,0,1-.177.886,2.482,2.482,0,0,1-.531.679,2.528,2.528,0,0,1-.886.472A3.674,3.674,0,0,1,6139.716,2970.47Z" transform="translate(-5955.8 -2875.515)" fill="#22739b"/>
    <path id="_15" data-name="15" d="M6403,2873.246V2863h1.653v2.628l-.059,1.388a7.887,7.887,0,0,1,1-.738,2.3,2.3,0,0,1,1.3-.325,1.854,1.854,0,0,1,1.654.738,3.492,3.492,0,0,1,.53,2.1v4.458H6407.4v-4.252a2.148,2.148,0,0,0-.265-1.24.958.958,0,0,0-.857-.384,1.482,1.482,0,0,0-.8.236,6.448,6.448,0,0,0-.827.649v4.99Z" transform="translate(-6213.947 -2778.468)" fill="#22739b"/>
    <path id="_16" data-name="16" d="M6707,2973.127v-9.95h1.358l.118.738h.06a7.179,7.179,0,0,1,1-.65,2.729,2.729,0,0,1,1.151-.266,2.9,2.9,0,0,1,1.181.236,2.379,2.379,0,0,1,.886.738,3.491,3.491,0,0,1,.561,1.152,5.849,5.849,0,0,1,.177,1.506,5.513,5.513,0,0,1-.236,1.624,4.308,4.308,0,0,1-.679,1.211,3.28,3.28,0,0,1-.974.738,2.732,2.732,0,0,1-1.152.266,2.186,2.186,0,0,1-.944-.207,3.668,3.668,0,0,1-.885-.561l.029,1.181v2.244Zm3.1-4.045a1.454,1.454,0,0,0,1.181-.591,2.967,2.967,0,0,0,.5-1.86,2.923,2.923,0,0,0-.384-1.654,1.242,1.242,0,0,0-1.181-.62,2.28,2.28,0,0,0-1.565.827v3.307a2.437,2.437,0,0,0,.768.472A1.934,1.934,0,0,0,6710.1,2969.082Z" transform="translate(-6508.97 -2875.515)" fill="#22739b"/>
    <path id="_17" data-name="17" d="M7013.214,2976.293a1.908,1.908,0,0,1-1.683-.738,3.485,3.485,0,0,1-.531-2.1V2969h1.683v4.252a2.142,2.142,0,0,0,.266,1.24.954.954,0,0,0,.827.354,1.493,1.493,0,0,0,.827-.207,3.725,3.725,0,0,0,.768-.768V2969h1.683v7.116h-1.388l-.118-1.033h-.059a4.7,4.7,0,0,1-1,.886A2.535,2.535,0,0,1,7013.214,2976.293Z" transform="translate(-6803.995 -2881.338)" fill="#22739b"/>
    <path id="_18" data-name="18" d="M7317,2970.293v-7.116h1.358l.118,1.24h.06a3.606,3.606,0,0,1,.915-1.063,2.085,2.085,0,0,1,1.122-.354,1.6,1.6,0,0,1,.8.147l-.266,1.447a3.158,3.158,0,0,1-.354-.089,1.675,1.675,0,0,0-.414-.03,1.727,1.727,0,0,0-.886.325,2.614,2.614,0,0,0-.8,1.152v4.34Z" transform="translate(-7100.96 -2875.515)" fill="#22739b"/>
    <g id="Group_349" data-name="Group 349" transform="translate(62.27 60.675)">
      <path id="Path_617" data-name="Path 617" d="M2109,2075.015V2056h7.2a13.256,13.256,0,0,1,2.923.3,6.143,6.143,0,0,1,2.421.974,4.875,4.875,0,0,1,1.654,1.889,6.466,6.466,0,0,1,.62,2.982,6.291,6.291,0,0,1-.827,3.4,5.891,5.891,0,0,1-2.244,2.1l4.134,7.382h-5.61l-3.277-6.378h-1.949v6.378Zm5.049-10.364h1.831c2.008,0,3.041-.827,3.041-2.51a1.831,1.831,0,0,0-.8-1.712,4.569,4.569,0,0,0-2.244-.443h-1.831Zm39.8,10.364V2056h5.019v19.015Zm14.025,0V2056h5.167l4.193,8.474,1.83,4.281h.118c-.059-.5-.118-1.063-.207-1.653-.088-.62-.147-1.24-.207-1.86-.059-.65-.118-1.27-.148-1.919-.059-.62-.088-1.24-.088-1.831V2056h4.813v19.015h-5.167l-4.222-8.5-1.8-4.251h-.118c.118,1.092.266,2.273.413,3.573a32.6,32.6,0,0,1,.236,3.69v5.492Zm24.477,0V2056h6.85a17.189,17.189,0,0,1,2.8.207,7.906,7.906,0,0,1,2.274.738,4.092,4.092,0,0,1,1.535,1.476,4.229,4.229,0,0,1,.591,2.3,4.855,4.855,0,0,1-.177,1.27,5.91,5.91,0,0,1-.5,1.181,4.211,4.211,0,0,1-.738,1,2.462,2.462,0,0,1-1,.649v.118a4.87,4.87,0,0,1,2.332,1.476,4.258,4.258,0,0,1,.945,2.982,4.971,4.971,0,0,1-.59,2.539,5.024,5.024,0,0,1-1.594,1.742,6.717,6.717,0,0,1-2.392,1,11.59,11.59,0,0,1-2.894.325Zm5.02-11.574h1.712a2.576,2.576,0,0,0,1.8-.531,1.847,1.847,0,0,0,.59-1.417,1.346,1.346,0,0,0-.59-1.24,3.2,3.2,0,0,0-1.8-.384h-1.712Zm0,7.706h2.067c1.949,0,2.923-.679,2.923-2.1a1.635,1.635,0,0,0-.709-1.506,4.834,4.834,0,0,0-2.214-.413h-2.067Zm17.686,3.868V2056h5.02v19.015Zm14.025,0V2056h7.2a13.631,13.631,0,0,1,2.923.3,6.329,6.329,0,0,1,2.421.974,5.125,5.125,0,0,1,1.654,1.889,6.469,6.469,0,0,1,.62,2.982,6.289,6.289,0,0,1-.827,3.4,5.891,5.891,0,0,1-2.244,2.1l4.134,7.382h-5.64l-3.277-6.378h-1.919v6.378Zm5.049-10.364h1.8c2.037,0,3.041-.827,3.041-2.51a1.816,1.816,0,0,0-.768-1.712,4.619,4.619,0,0,0-2.273-.443h-1.8Zm18.188,10.364V2056h5.61a14.155,14.155,0,0,1,3.986.531,7.552,7.552,0,0,1,3.071,1.654,7.4,7.4,0,0,1,2.008,2.923,11.161,11.161,0,0,1,.738,4.311,11.935,11.935,0,0,1-.708,4.34,7.657,7.657,0,0,1-1.978,2.982,8.01,8.01,0,0,1-3.011,1.713,12.124,12.124,0,0,1-3.809.561Zm5.049-4.045h.3a6.836,6.836,0,0,0,1.919-.237,3.866,3.866,0,0,0,1.565-.856,3.921,3.921,0,0,0,1.033-1.712,7.975,7.975,0,0,0,.384-2.746,7.8,7.8,0,0,0-.384-2.717,3.876,3.876,0,0,0-1.033-1.653,3.759,3.759,0,0,0-1.565-.8,8.131,8.131,0,0,0-1.919-.207h-.3Z" transform="translate(-2109 -2055.97)" fill="#232f3a"/>
      <g id="Group_348" data-name="Group 348" transform="translate(20.668)">
        <path id="Path_618" data-name="Path 618" d="M3062,2055h4.311l5.817,19.073h-4.577C3067.4,2073.365,3062.147,2055.915,3062,2055Z" transform="translate(-3054.53 -2055)" fill="#232f3a"/>
        <path id="Path_619" data-name="Path 619" d="M2811.982,2396c.975,3.1,2.982,6.673,2.982,8.326a2.982,2.982,0,1,1-5.964,0C2809,2402.673,2810.712,2399.927,2811.982,2396Z" transform="translate(-2809 -2385.932)" fill="#8bc8ed" fill-rule="evenodd"/>
      </g>
    </g>
    <path id="Path_620" data-name="Path 620" d="M907.828,566a4.818,4.818,0,0,0-1.742,1.506c-.8,1.712,1.3,2.155,1.535.561A16.9,16.9,0,0,1,907.828,566Z" transform="translate(-879.159 -549.288)" fill="#b3cddb" fill-rule="evenodd"/>
    <path id="Path_621" data-name="Path 621" d="M1909.385,37a5.552,5.552,0,0,0-1.949,1.683c-.886,1.89,1.447,2.362,1.713.591A15.247,15.247,0,0,1,1909.385,37Z" transform="translate(-1850.925 -35.908)" fill="#b3cddb" fill-rule="evenodd"/>
    <path id="Path_622" data-name="Path 622" d="M2819.806,883a6.363,6.363,0,0,0-2.215,1.919c-1,2.155,1.654,2.687,1.949.679A19.914,19.914,0,0,1,2819.806,883Z" transform="translate(-2734.181 -856.929)" fill="#b3cddb" fill-rule="evenodd"/>
    <path id="Path_623" data-name="Path 623" d="M361.744,953a6.039,6.039,0,0,0-2.214,1.919c-1,2.126,1.624,2.687,1.949.65A19.451,19.451,0,0,1,361.744,953Z" transform="translate(-348.694 -924.862)" fill="#b3cddb" fill-rule="evenodd"/>
    <path id="Path_624" data-name="Path 624" d="M531.186,777a3.317,3.317,0,0,0-1.151,1c-.531,1.122.856,1.417,1,.354A11.207,11.207,0,0,1,531.186,777Z" transform="translate(-514.268 -754.059)" fill="#b3cddb" fill-rule="evenodd"/>
    <path id="Path_625" data-name="Path 625" d="M565.219,348s-.945.472-1.181,1c-.531,1.122.856,1.417,1.033.354A7.34,7.34,0,0,1,565.219,348Z" transform="translate(-547.268 -337.725)" fill="#b3cddb" fill-rule="evenodd"/>
    <path id="Path_626" data-name="Path 626" d="M832.28,185a3.249,3.249,0,0,0-1.181,1c-.531,1.122.886,1.417,1.033.354A7.083,7.083,0,0,1,832.28,185Z" transform="translate(-806.445 -179.538)" fill="#b3cddb" fill-rule="evenodd"/>
    <path id="Path_627" data-name="Path 627" d="M2902.19,709a3.316,3.316,0,0,0-1.152,1c-.531,1.122.856,1.417,1.033.354A10.963,10.963,0,0,1,2902.19,709Z" transform="translate(-2815.266 -688.066)" fill="#b3cddb" fill-rule="evenodd"/>
    <path id="Path_628" data-name="Path 628" d="M642.19,541a3.01,3.01,0,0,0-1.152,1c-.531,1.122.856,1.417,1.033.354A7.244,7.244,0,0,1,642.19,541Z" transform="translate(-621.994 -525.027)" fill="#b3cddb" fill-rule="evenodd"/>
    <path id="Path_629" data-name="Path 629" d="M412.5,605a4.819,4.819,0,0,0-1.742,1.506c-.827,1.712,1.3,2.126,1.535.531A12.22,12.22,0,0,1,412.5,605Z" transform="translate(-398.446 -587.137)" fill="#b3cddb" fill-rule="evenodd"/>
  </g>
</svg>
